<?xml version="1.0" encoding="utf-8"?>
<!-- Generator: Adobe Illustrator 28.1.0, SVG Export Plug-In . SVG Version: 6.00 Build 0)  -->
<svg version="1.1" id="레이어_1" xmlns="http://www.w3.org/2000/svg" xmlns:xlink="http://www.w3.org/1999/xlink" x="0px"
	 y="0px" viewBox="0 0 60 60" style="enable-background:new 0 0 60 60;" xml:space="preserve">
<style type="text/css">
	.st0{fill:#FFFFFF;}
	.st1{fill:none;}
	.st2{font-family:'Roboto-Black';}
	.st3{font-size:3.6986px;}
	.st4{display:none;}
	.st5{display:inline;}
	.st6{display:inline;fill:none;}
	.st7{display:inline;fill:#B4975A;}
	.st8{fill:#B4975A;}
</style>
<g>
	<g id="White">
		<path id="XMLID_28_" class="st0" d="M54.2,39.7c-0.6-0.3-1.5-0.5-2.5-0.5c-2.1,0-3.4,1.2-3.4,2.7c0,1.5,1,2.1,2.3,2.5
			c1.4,0.5,1.8,0.9,1.8,1.6c0,0.7-0.5,1.3-1.4,1.3c-1,0-1.8-0.6-2.4-2.3l-0.4,0.1l0.1,2.4c0.7,0.3,1.9,0.5,2.9,0.5
			c2.2,0,3.6-1.1,3.6-2.8c0-1.2-0.6-1.8-2-2.4c-1.6-0.6-2.1-1-2.1-1.7c0-0.7,0.5-1.2,1.2-1.2c1,0,1.7,0.6,2.2,2.1l0.4-0.1L54.2,39.7
			z"/>
		<path id="XMLID_73_" class="st0" d="M35.7,39.3c-0.8,0-1.4,0.2-2,0.5c0-1.8,0-3.4,0.1-4l-3.7,0.7v0.3l0.4,0
			c0.5,0.1,0.7,0.4,0.8,1.1c0.1,1.3,0.1,8.4,0,9.6c1,0.2,2.1,0.4,3.2,0.4c3,0,4.7-1.8,4.7-4.7C39.1,41,37.7,39.3,35.7,39.3
			 M34.4,47.4c-0.2,0-0.5,0-0.6-0.1c-0.1-0.8-0.1-4.1-0.1-7c0.3-0.1,0.6-0.1,0.9-0.1c1.2,0,1.9,1.4,1.9,3.2
			C36.5,45.7,35.7,47.4,34.4,47.4"/>
		<path id="XMLID_25_" class="st0" d="M16,36.1H6.2v0.5l0.5,0.1c0.7,0.1,1,0.6,1.1,1.6c0.2,2,0.1,5.6,0,7.4c-0.1,1-0.4,1.5-1.1,1.6
			l-0.5,0.1v0.5h6.3v-0.5l-0.7-0.1c-0.7-0.1-1-0.6-1.1-1.6c-0.1-0.7-0.1-1.9-0.1-3.3l1.3,0c0.9,0,1.2,0.7,1.4,1.6h0.5v-4h-0.5
			c-0.2,0.9-0.6,1.6-1.4,1.6l-1.3,0c0-1.9,0-3.7,0.1-4.7h1.9c1.5,0,2.3,1,2.8,2.7l0.6-0.2L16,36.1z"/>
		<path id="XMLID_69_" class="st0" d="M19.2,39.2c2.8,0,4.2,1.9,4.2,4.4c0,2.4-1.6,4.4-4.3,4.4s-4.2-1.9-4.2-4.4
			C14.9,41.2,16.4,39.2,19.2,39.2 M19,39.8c-1.2,0-1.6,1.7-1.6,3.9c0,2.1,0.6,3.9,1.7,3.9c1.2,0,1.6-1.7,1.6-3.9
			C20.7,41.5,20.2,39.8,19,39.8"/>
		<path id="XMLID_66_" class="st0" d="M39.8,43.7c0-2.3,1.5-4.5,4.3-4.5c2.3,0,3.5,1.7,3.5,4h-5.2c-0.1,2.1,1,3.6,3,3.6
			c0.9,0,1.4-0.2,1.9-0.6l0.2,0.3c-0.6,0.8-1.8,1.6-3.4,1.6C41.6,48,39.8,46.2,39.8,43.7 M42.4,42.6l2.6-0.1c0-1.2-0.2-2.8-1.1-2.8
			C42.9,39.8,42.4,41.3,42.4,42.6"/>
		<path id="XMLID_20_" class="st0" d="M30.6,39.5c-0.9-0.6-2.7-0.3-3.5,1.7l0-1.9l-3.7,0.7v0.3l0.4,0c0.5,0.1,0.7,0.4,0.8,1.1
			c0.1,1.3,0.1,3.7,0,4.8c-0.1,0.7-0.3,1-0.8,1.1l-0.4,0v0.5h5.2v-0.5l-0.7,0c-0.5-0.1-0.7-0.4-0.8-1.1c-0.1-1-0.1-3.1,0-4.5
			c0.2-0.4,1.5-0.7,2.6,0L30.6,39.5z"/>
		<path id="XMLID_63_" class="st0" d="M9,50.5H7.9v2.2H7.4v-2.2H6.2v-0.3H9L9,50.5L9,50.5z"/>
		<path id="XMLID_60_" class="st0" d="M10.8,52.7v-2.5h1.5c0.6,0,1,0.4,1,0.8c0,0.3-0.3,0.7-0.7,0.8l0.8,1h-0.6l-0.7-0.9h-0.8v0.9
			H10.8z M11.4,51.5h0.9c0.3,0,0.5-0.2,0.5-0.5c0-0.3-0.3-0.5-0.5-0.5h-0.9L11.4,51.5L11.4,51.5z"/>
		<path id="XMLID_57_" class="st0" d="M15.2,52.7l1.4-2.5H17l1.4,2.5h-0.6L17.4,52h-1.3l-0.3,0.7H15.2z M16.8,50.6l-0.6,1.1h1.1
			L16.8,50.6z"/>
		<path id="XMLID_55_" class="st0" d="M20.2,50.2l1,2.1l1-2.1h0.6l-1.4,2.5H21l-1.4-2.5H20.2z"/>
		<path id="XMLID_53_" class="st0" d="M27.1,52.4v0.3h-2.3v-2.5H27v0.3h-1.8v0.7h1.5v0.3h-1.5v0.8L27.1,52.4L27.1,52.4z"/>
		<path id="XMLID_51_" class="st0" d="M29.2,52.7v-2.5h0.5v2.2h1.8v0.3H29.2z"/>
		<path id="XMLID_49_" class="st0" d="M37,52.4c-0.3,0.2-0.6,0.3-1,0.3c-0.9,0-1.6-0.6-1.6-1.3c0-0.7,0.7-1.3,1.6-1.3
			c0.6,0,1.1,0.2,1.3,0.6L37,50.9c-0.2-0.3-0.5-0.4-0.9-0.4c-0.6,0-1,0.5-1,0.9c0,0.5,0.5,0.9,1.1,0.9c0.3,0,0.7-0.1,0.9-0.4v-0.3
			h-0.7v-0.3h1.2v1.3H37L37,52.4L37,52.4z"/>
		<path id="XMLID_47_" class="st0" d="M42,51.5v-1.3h0.5v1.3c0,0.7-0.4,1.3-1.5,1.3c-1.1,0-1.5-0.6-1.5-1.3v-1.3h0.5v1.3
			c0,0.5,0.2,0.9,0.9,0.9C41.8,52.4,42,51.9,42,51.5z"/>
		<path id="XMLID_45_" class="st0" d="M44.8,52.7v-2.5h0.5v2.5H44.8z"/>
		<path id="XMLID_42_" class="st0" d="M47.6,52.7v-2.5h1.2c1.1,0,1.7,0.6,1.7,1.3c0,0.8-0.7,1.3-1.7,1.3H47.6z M48.8,50.5h-0.7v1.8
			h0.7c0.7,0,1.1-0.4,1.1-0.9C50,50.9,49.5,50.5,48.8,50.5z"/>
		<path id="XMLID_40_" class="st0" d="M54.7,52.4v0.3h-2.3v-2.5h2.3v0.3h-1.7v0.7h1.5v0.3h-1.5v0.8L54.7,52.4L54.7,52.4z"/>
		<g id="XMLID_31_">
			<path id="XMLID_38_" class="st0" d="M36.2,27.6l4.4,0l1.4,3.9l1.4-3.9l4.4,0l-3.6-2.8l1.4-4.1l-3.6,2.5l-3.7-2.4l1.4,4.1
				L36.2,27.6z"/>
			<path id="XMLID_36_" class="st0" d="M32.5,14.3l4.4,0l1.4,3.9l1.4-3.9l4.4,0l-3.6-2.8l1.4-4.1l-3.6,2.5l-3.7-2.4l1.4,4.1
				L32.5,14.3z"/>
			<path id="XMLID_34_" class="st0" d="M18,14.3l4.4,0l1.4,3.9l1.4-3.9l4.4,0l-3.6-2.8l1.4-4.1l-3.6,2.5l-3.7-2.4l1.4,4.1L18,14.3z"
				/>
			<path id="XMLID_32_" class="st0" d="M14.3,27.6l4.4,0l1.4,3.9l1.4-3.9l4.4,0l-3.6-2.8l1.4-4.1l-3.6,2.5l-3.7-2.4l1.4,4.1
				L14.3,27.6z"/>
		</g>
		<rect x="27" y="20.2" class="st1" width="8.7" height="3.9"/>
		<text transform="matrix(1 0 0 1 26.9888 22.9698)" class="st0 st2 st3">2024</text>
	</g>
</g>
<g id="Black" class="st4">
	<g id="XMLID_00000014605900836843755990000004343305683536522399_" class="st5">
		<path id="XMLID_00000132051925640654906150000003063269757051229585_" d="M26.7,51.5l21.4,0.1l7,19.1l6.8-19.1l21.5-0.2L65.9,37.7
			l6.7-20.1l-17.4,12L37.4,17.9L44,37.8L26.7,51.5z"/>
	</g>
</g>
<g id="Gold" class="st4">
	<g id="XMLID_00000016051618003878843460000010260185579157452731_" class="st5">
		<path id="XMLID_00000090294743121167868420000010461020492440181640_" class="st8" d="M26.7,51.5l21.4,0.1l7,19.1l6.8-19.1
			l21.5-0.2L65.9,37.7l6.7-20.1l-17.4,12L37.4,17.9L44,37.8L26.7,51.5z"/>
	</g>
</g>
</svg>
