<svg id="_facebook" data-name="+ facebook" xmlns="http://www.w3.org/2000/svg" width="60" height="480" viewBox="0 0 60 480">
  <defs>
    <style>
      .cls-1 {
        fill: #fff;
        fill-rule: evenodd;
        opacity: 0.85;
      }

      .cls-2 {
        fill: none;
        stroke: #fff;
        stroke-width: 0.25px;
      }
    </style>
  </defs>
  <path class="cls-1" d="M32.388,23.586v2.935h4.669l-0.614,4.77H32.388V43.032H27.474V31.291H23.543v-4.77h3.931V22.363c0-7.093,9.583-5.137,9.583-5.137v4.158H34.6c-2.7,0-2.211,2.2-2.211,2.2"/>
  <circle id="Ellipse_1_copy_9" data-name="Ellipse 1 copy 9" class="cls-2" cx="30" cy="30" r="30"/>
  <path class="cls-1" d="M17.335,94.8V85.312a1.183,1.183,0,0,0,.051-0.205c0.021-.312.039-0.625,0.052-0.938a8.34,8.34,0,0,1,.536-2.545,6.476,6.476,0,0,1,2.15-2.9,7.365,7.365,0,0,1,3.9-1.446c0.893-.089,1.8-0.082,2.695-0.111,0.316-.01.632,0,0.948,0a1.167,1.167,0,0,0,.231-0.051h4.717a0.561,0.561,0,0,0,.154.051c0.859,0.02,1.718.022,2.576,0.058,0.58,0.025,1.159.085,1.736,0.151a6.756,6.756,0,0,1,2.306.726A6.411,6.411,0,0,1,41.4,79.708a6.825,6.825,0,0,1,1.161,2.013,10.074,10.074,0,0,1,.564,3.488,1.951,1.951,0,0,0,.051.307v9.126a0.307,0.307,0,0,0-.05.1c-0.021.381-.024,0.763-0.057,1.142a10.084,10.084,0,0,1-.163,1.376,6.916,6.916,0,0,1-2.112,3.8,6.833,6.833,0,0,1-2.32,1.373,10.55,10.55,0,0,1-3.5.516,1.83,1.83,0,0,0-.308.051H25.846a0.649,0.649,0,0,0-.154-0.051c-0.724-.054-1.45-0.085-2.172-0.161a6.823,6.823,0,0,1-2.18-.635,6.606,6.606,0,0,1-2.193-1.663,6.3,6.3,0,0,1-1.084-1.746,9.47,9.47,0,0,1-.678-3.716A1.062,1.062,0,0,0,17.335,94.8Zm17.257,5.846,0-.024c0.539-.043,1.079-0.087,1.618-0.129a5.33,5.33,0,0,0,2.221-.659,4.172,4.172,0,0,0,1.712-1.808,5.981,5.981,0,0,0,.564-2.2c0.064-.751.105-1.507,0.1-2.261,0-2.534-.031-5.068-0.045-7.6a13.4,13.4,0,0,0-.2-2.548,4.625,4.625,0,0,0-1.232-2.427,4.559,4.559,0,0,0-2.111-1.163,11.692,11.692,0,0,0-2.988-.292c-2.807-.022-5.615.026-8.422,0.034a10.894,10.894,0,0,0-2.316.21,4.405,4.405,0,0,0-2.8,1.779,5.345,5.345,0,0,0-.894,2.71c-0.078,1-.091,2-0.109,3-0.017.931-.015,1.863,0,2.794q0.039,2.758.1,5.517a6.006,6.006,0,0,0,.5,2.293,4.217,4.217,0,0,0,1.977,2.083,5.761,5.761,0,0,0,2.246.581c0.82,0.063,1.644.1,2.466,0.1C29.523,100.651,32.057,100.643,34.592,100.643Zm-11-10.559a6.66,6.66,0,1,1,6.553,6.647A6.635,6.635,0,0,1,23.592,90.084Zm10.921-.01a4.272,4.272,0,1,0-4.505,4.265A4.246,4.246,0,0,0,34.512,90.074Zm1.077-6.894A1.562,1.562,0,0,1,37.212,81.6a1.577,1.577,0,0,1-.1,3.151A1.556,1.556,0,0,1,35.589,83.18Z"/>
  <circle id="Ellipse_1_copy_8" data-name="Ellipse 1 copy 8" class="cls-2" cx="30" cy="90" r="30"/>
  <path class="cls-1" d="M42.562,143.614A3.209,3.209,0,0,0,40.3,141.34c-1.991-.537-9.975-0.537-9.975-0.537s-7.984,0-9.975.537a3.209,3.209,0,0,0-2.257,2.274,36.17,36.17,0,0,0,0,12.38,3.207,3.207,0,0,0,2.257,2.274c1.991,0.538,9.975.538,9.975,0.538s7.984,0,9.975-.538a3.207,3.207,0,0,0,2.258-2.274A36.164,36.164,0,0,0,42.562,143.614ZM27.777,153.662v-7.716L34.41,149.8Z"/>
  <circle id="Ellipse_1_copy_7" data-name="Ellipse 1 copy 7" class="cls-2" cx="30" cy="150" r="30"/>
  <path class="cls-1" d="M32.12,205.284a7.73,7.73,0,0,0-4.956,2.3v-9.278H21.331v24.378h5.893v-1.91a5.588,5.588,0,0,0,4.9,2.519s8.218-.3,8.218-9.1C40.338,214.2,40.036,205.284,32.12,205.284ZM30.836,218.15a3.761,3.761,0,1,1,3.747-3.761A3.756,3.756,0,0,1,30.836,218.15Z"/>
  <circle id="Ellipse_1_copy_6" data-name="Ellipse 1 copy 6" class="cls-2" cx="30" cy="210" r="30"/>
  <path class="cls-1" d="M41.986,280.514a7.177,7.177,0,0,0,3.135-5.751c0-4.2-4.062-7.609-9.073-7.609s-9.072,3.406-9.072,7.609,4.062,7.608,9.072,7.608a10.679,10.679,0,0,0,2.962-.417,0.9,0.9,0,0,1,.267-0.04,0.945,0.945,0,0,1,.482.141l1.986,1.153a0.331,0.331,0,0,0,.174.057,0.3,0.3,0,0,0,.3-0.305,0.92,0.92,0,0,0-.049-0.222c-0.012-.043-0.256-0.961-0.409-1.535a0.722,0.722,0,0,1-.032-0.194A0.607,0.607,0,0,1,41.986,280.514Zm-8.962-6.969a1.218,1.218,0,1,1,1.21-1.217A1.213,1.213,0,0,1,33.024,273.545Zm6.048,0a1.218,1.218,0,1,1,1.21-1.217A1.213,1.213,0,0,1,39.072,273.545Zm-3.024-7.11c0.2,0,.4.006,0.591,0.016-0.82-4.362-5.321-7.7-10.752-7.7-6.013,0-10.887,4.088-10.887,9.131a8.608,8.608,0,0,0,3.762,6.9,0.733,0.733,0,0,1,.3.6,0.873,0.873,0,0,1-.039.232l-0.49,1.842a1.058,1.058,0,0,0-.059.267,0.363,0.363,0,0,0,.363.365,0.4,0.4,0,0,0,.21-0.068l2.383-1.385a1.137,1.137,0,0,1,.578-0.168,1.092,1.092,0,0,1,.32.048,12.8,12.8,0,0,0,3.554.5c0.2,0,.4-0.006.6-0.015a7.081,7.081,0,0,1-.366-2.238C26.119,270.164,30.565,266.435,36.048,266.435ZM29.516,263.5a1.461,1.461,0,1,1-1.452,1.461A1.456,1.456,0,0,1,29.516,263.5Zm-7.258,2.922a1.461,1.461,0,1,1,1.451-1.461A1.456,1.456,0,0,1,22.258,266.423Z"/>
  <circle id="Ellipse_1_copy_5" data-name="Ellipse 1 copy 5" class="cls-2" cx="30" cy="270" r="30"/>
  <path id="weibo" class="cls-1" d="M28.127,340.938c-5.168.508-9.63-1.825-9.966-5.216s3.584-6.552,8.752-7.062,9.631,1.823,9.967,5.212-3.583,6.555-8.752,7.066m10.339-11.256c-0.44-.131-0.741-0.221-0.511-0.8a3.257,3.257,0,0,0,.009-3.106c-1.013-1.447-3.786-1.369-6.966-.039,0,0-1,.437-0.743-0.355,0.489-1.57.415-2.886-.346-3.645-1.724-1.725-6.31.065-10.244,3.993-2.945,2.943-4.655,6.062-4.655,8.759,0,5.159,6.621,8.3,13.1,8.3,8.491,0,14.14-4.929,14.14-8.842,0-2.365-1.993-3.707-3.784-4.262m5.639-9.441a8.268,8.268,0,0,0-7.867-2.544h0a1.194,1.194,0,1,0,.5,2.336,5.875,5.875,0,0,1,6.822,7.552h0a1.2,1.2,0,0,0,2.275.737,0.021,0.021,0,0,1,0,0,8.247,8.247,0,0,0-1.729-8.077m-3.149,2.839a4.027,4.027,0,0,0-3.832-1.237,1.028,1.028,0,1,0,.429,2.01h0a1.965,1.965,0,0,1,2.284,2.529h0a1.029,1.029,0,0,0,1.958.633,4.015,4.015,0,0,0-.84-3.936M28.413,334.8a0.746,0.746,0,0,1-.893.329,0.52,0.52,0,0,1-.23-0.775,0.739,0.739,0,0,1,.872-0.328,0.521,0.521,0,0,1,.251.774m-1.647,2.113a1.958,1.958,0,0,1-2.377.778,1.369,1.369,0,0,1-.529-2.064,1.967,1.967,0,0,1,2.329-.784,1.376,1.376,0,0,1,.577,2.07m1.879-5.64a5.633,5.633,0,0,0-6.308,2.75,3.832,3.832,0,0,0,2.449,5.462,5.583,5.583,0,0,0,6.663-2.825,3.85,3.85,0,0,0-2.8-5.387"/>
  <circle id="Ellipse_1_copy_4" data-name="Ellipse 1 copy 4" class="cls-2" cx="30" cy="330" r="30"/>
  <path id="Logo_twitter" class="cls-1" d="M25.272,401A15.711,15.711,0,0,0,41.09,385.181c0-.241,0-0.48-0.016-0.719a11.3,11.3,0,0,0,2.773-2.878,11.1,11.1,0,0,1-3.193.875,5.576,5.576,0,0,0,2.445-3.076,11.127,11.127,0,0,1-3.53,1.35A5.564,5.564,0,0,0,30.1,385.8,15.781,15.781,0,0,1,18.636,380a5.564,5.564,0,0,0,1.721,7.422,5.517,5.517,0,0,1-2.518-.7c0,0.024,0,.047,0,0.071a5.563,5.563,0,0,0,4.46,5.451,5.527,5.527,0,0,1-2.511.1,5.566,5.566,0,0,0,5.193,3.862,11.157,11.157,0,0,1-6.9,2.38,11.389,11.389,0,0,1-1.326-.077,15.736,15.736,0,0,0,8.522,2.5"/>
  <circle id="Ellipse_1_copy" data-name="Ellipse 1 copy" class="cls-2" cx="30" cy="390" r="30"/>
  <path id="logo_line" class="cls-1" d="M44.124,448.084c0-6.179-6.14-11.207-13.687-11.207S16.75,441.905,16.75,448.084c0,5.539,4.869,10.179,11.447,11.056a1.688,1.688,0,0,1,1.206.681,2.858,2.858,0,0,1,.044,1.248s-0.16.975-.2,1.183c-0.06.348-.275,1.365,1.185,0.744s7.883-4.682,10.754-8.018h0A10.012,10.012,0,0,0,44.124,448.084Zm-18.516,3.3a0.268,0.268,0,0,1-.266.269H21.506a0.266,0.266,0,0,1-.184-0.075,0.011,0.011,0,0,0,0,0l0,0a0.267,0.267,0,0,1-.075-0.186h0v-6.016a0.268,0.268,0,0,1,.266-0.269h0.96a0.268,0.268,0,0,1,.267.269v4.778h2.609a0.268,0.268,0,0,1,.266.269v0.969Zm2.314,0a0.268,0.268,0,0,1-.267.269H26.7a0.268,0.268,0,0,1-.267-0.269v-6.017A0.267,0.267,0,0,1,26.7,445.1h0.96a0.267,0.267,0,0,1,.267.268v6.017Zm6.608,0a0.268,0.268,0,0,1-.266.269H33.3a0.3,0.3,0,0,1-.068-0.009h0l-0.018-.006-0.008,0-0.013-.006a0.063,0.063,0,0,1-.013-0.006l-0.008,0-0.017-.01,0,0a0.279,0.279,0,0,1-.068-0.067L30.35,447.81v3.573a0.268,0.268,0,0,1-.267.269h-0.96a0.268,0.268,0,0,1-.267-0.269v-6.017a0.268,0.268,0,0,1,.267-0.268h0.983l0.014,0h0.011l0.015,0,0.009,0a0.092,0.092,0,0,1,.016.006l0.009,0a0.088,0.088,0,0,1,.015.006l0.008,0,0.014,0.008,0.008,0,0.014,0.01,0.007,0,0.015,0.012,0,0.005,0.016,0.016,0,0,0.021,0.027,2.733,3.724v-3.575A0.267,0.267,0,0,1,33.3,445.1h0.96a0.267,0.267,0,0,1,.266.268v6.017Zm5.3-5.047a0.267,0.267,0,0,1-.266.268H36.958v1.017h2.608a0.268,0.268,0,0,1,.266.27v0.968a0.267,0.267,0,0,1-.266.269H36.958v1.017h2.608a0.268,0.268,0,0,1,.266.269v0.969a0.268,0.268,0,0,1-.266.269H35.731a0.264,0.264,0,0,1-.184-0.075l0,0,0,0a0.266,0.266,0,0,1-.075-0.186h0v-6.016a0.268,0.268,0,0,1,.074-0.186l0,0,0,0a0.267,0.267,0,0,1,.185-0.075h3.836a0.267,0.267,0,0,1,.266.269v0.969Z"/>
  <circle class="cls-2" cx="30" cy="450" r="30"/>
</svg>
