<svg xmlns="http://www.w3.org/2000/svg" width="21" height="21" viewBox="0 0 21 21">
  <g id="그룹_619" data-name="그룹 619" transform="translate(-1287 -202)">
    <rect id="Layer_1" data-name="Layer 1" width="21" height="21" transform="translate(1287 202)" fill="#857b71" opacity="0"/>
    <path id="Rounded_Rectangle_14" data-name="Rounded Rectangle 14" d="M12.249,17.5l.875-.507L14,17.5h3.5V3.5H14V6.1H3.5V17.5h8.75M17.5,19.25H14a1.743,1.743,0,0,1-.875-.234,1.742,1.742,0,0,1-.875.234H3.5A1.749,1.749,0,0,1,1.75,17.5V6.1A1.75,1.75,0,0,1,3.5,4.349H12.25V3.5A1.75,1.75,0,0,1,14,1.75h3.5A1.749,1.749,0,0,1,19.25,3.5v14A1.749,1.749,0,0,1,17.5,19.25Z" transform="translate(1287 202)" fill="#fff"/>
    <path id="Rectangle_10" data-name="Rectangle 10" d="M19.259,19.25H1.741a.866.866,0,0,1-.866-.866v-.017a.867.867,0,0,1,.866-.866H12.25V5.25H14V17.5h5.259a.867.867,0,0,1,.866.866v.017A.866.866,0,0,1,19.259,19.25Z" transform="translate(1287 202)" fill="#fff"/>
    <path id="Rounded_Rectangle_15" data-name="Rounded Rectangle 15" d="M8.75,14H7a.875.875,0,0,1,0-1.75H8.75a.875.875,0,0,1,0,1.75Zm.017-3.526H6.983a.858.858,0,0,1-.858-.858V9.608a.858.858,0,0,1,.858-.858H8.767a.858.858,0,0,1,.858.858v.009A.858.858,0,0,1,8.767,10.474Z" transform="translate(1287 202)" fill="#fff"/>
  </g>
</svg>
