<svg width="21" height="21" viewBox="0 0 21 21" fill="none" xmlns="http://www.w3.org/2000/svg">
<g clip-path="url(#clip0_8_12)">
<path d="M17.4997 17.4997V3.49983H15.7502V17.4997H17.4997ZM5.25012 17.4997V3.49983H3.49985V17.4997H5.25012ZM19.2497 19.2497H14.0002V1.74983H19.2497V19.2497ZM7.00012 19.2497H1.74985V1.74983H7.00012V19.2497Z" fill="white"/>
<path d="M19.2591 19.2496H1.74118C1.26318 19.2496 0.874939 18.8622 0.874939 18.3834V18.3661C0.874939 17.8881 1.26318 17.4998 1.74118 17.4998H19.2591C19.7371 17.4998 20.1254 17.8881 20.1254 18.3661V18.3834C20.1254 18.8622 19.7371 19.2496 19.2591 19.2496ZM11.3747 14.8751H9.62484C9.14211 14.8751 8.74994 14.4829 8.74994 14.0002C8.74994 13.5166 9.14211 13.1253 9.62484 13.1253H11.3747C11.8582 13.1253 12.2504 13.5166 12.2504 14.0002C12.2504 14.4829 11.8582 14.8751 11.3747 14.8751ZM11.3747 11.3746H9.62484C9.14211 11.3746 8.74994 10.9833 8.74994 10.4997C8.74994 10.017 9.14211 9.62483 9.62484 9.62483H11.3747C11.8582 9.62483 12.2504 10.017 12.2504 10.4997C12.2504 10.9833 11.8582 11.3746 11.3747 11.3746ZM14.8838 7.00009H6.11653C5.63772 7.00009 5.25027 6.61186 5.25027 6.13383V6.11652C5.25027 5.63771 5.63772 5.25026 6.11653 5.25026H14.8838C15.3626 5.25026 15.75 5.63771 15.75 6.11652V6.13383C15.75 6.61186 15.3626 7.00009 14.8838 7.00009ZM19.2591 3.49964H13.9915C13.5127 3.49964 13.1253 3.11219 13.1253 2.6334V2.61607C13.1253 2.13807 13.5127 1.74983 13.9915 1.74983H19.2591C19.7371 1.74983 20.1254 2.13807 20.1254 2.61607V2.6334C20.1254 3.11219 19.7371 3.49964 19.2591 3.49964ZM7.00877 3.49964H1.74118C1.26318 3.49964 0.874939 3.11219 0.874939 2.6334V2.61607C0.874939 2.13807 1.26318 1.74983 1.74118 1.74983H7.00877C7.48758 1.74983 7.87501 2.13807 7.87501 2.61607V2.6334C7.87501 3.11219 7.48758 3.49964 7.00877 3.49964Z" fill="white"/>
</g>
<defs>
<clipPath id="clip0_8_12">
<rect width="21" height="21" fill="white"/>
</clipPath>
</defs>
</svg>
